<svg id="Group_41528" data-name="Group 41528" xmlns="http://www.w3.org/2000/svg" width="27.052" height="26.026" viewBox="0 0 27.052 26.026">
  <path id="Path_41359" data-name="Path 41359" d="M3.023,1h8.062c4.453,0,8.062,2.6,8.062,7.054V23.171c0,1.67-1.354,2.016-3.023,2.016H3.023C1.354,25.186,0,24.84,0,23.171V3.016C0,1.346,1.354,1,3.023,1Z" transform="translate(7.054 -0.08)" fill="#fff"/>
  <path id="Rectangle_24847_-_Outline" data-name="Rectangle 24847 - Outline" d="M2.6,1.3A1.3,1.3,0,0,0,1.3,2.6V23.424a1.3,1.3,0,0,0,1.3,1.3H18.218a1.3,1.3,0,0,0,1.3-1.3V6.94A5.645,5.645,0,0,0,13.881,1.3H2.6M2.6,0H13.881a6.94,6.94,0,0,1,6.94,6.94V23.424a2.6,2.6,0,0,1-2.6,2.6H2.6a2.6,2.6,0,0,1-2.6-2.6V2.6A2.6,2.6,0,0,1,2.6,0Z" transform="translate(6.231)" fill="#707070"/>
  <path id="Rectangle_24848_-_Outline" data-name="Rectangle 24848 - Outline" d="M1.342,1.5V5.367a.448.448,0,0,0,.447.447H5.659A5.835,5.835,0,0,0,1.342,1.5M0,0A7.157,7.157,0,0,1,7.157,7.157H1.789A1.789,1.789,0,0,1,0,5.367Z" transform="translate(19.895)" fill="#707070"/>
  <rect id="Rectangle_26644" data-name="Rectangle 26644" width="15.116" height="15.116" rx="2" transform="translate(0 5.959)" fill="#005bba"/>
  <path id="Path_39742" data-name="Path 39742" d="M3391.081-8621.971h-6.94a.65.65,0,0,1-.651-.648.65.65,0,0,1,.651-.649h6.94a.649.649,0,0,1,.65.649A.649.649,0,0,1,3391.081-8621.971Z" transform="translate(-3367.291 8633.444)" fill="#4b99ea"/>
  <path id="Path_39743" data-name="Path 39743" d="M3391.081-8621.971h-6.94a.65.65,0,0,1-.651-.648.65.65,0,0,1,.651-.649h6.94a.649.649,0,0,1,.65.649A.649.649,0,0,1,3391.081-8621.971Z" transform="translate(-3367.291 8636.048)" fill="#005bba"/>
  <path id="Path_39744" data-name="Path 39744" d="M3391.081-8621.971h-6.94a.65.65,0,0,1-.651-.648.65.65,0,0,1,.651-.649h6.94a.649.649,0,0,1,.65.649A.649.649,0,0,1,3391.081-8621.971Z" transform="translate(-3367.291 8638.651)" fill="#005bba"/>
  <path id="Union_1440" data-name="Union 1440" d="M5.42,7.825l-1.825-3-1.765,3H0L2.465,3.817.137,0H2L3.57,2.681,5.1,0H6.889L4.7,3.681,7.293,7.825Z" transform="translate(3.913 9.604)" fill="#fff"/>
</svg>
