<svg xmlns="http://www.w3.org/2000/svg" width="21" height="26.25" viewBox="0 0 21 26.25">
  <g id="Group_38141" data-name="Group 38141" transform="translate(-3168 8628.913)">
    <path id="Path_39742" data-name="Path 39742" d="M3,1h8c4.418,0,8,2.582,8,7V23c0,1.657-1.343,2-3,2H3c-1.657,0-3-.343-3-2V3C0,1.343,1.343,1,3,1Z" transform="translate(3169 -8629)" fill="#fff"/>
    <path id="Rectangle_24847_-_Outline" data-name="Rectangle 24847 - Outline" d="M2.625,1.313A1.314,1.314,0,0,0,1.313,2.625v21a1.314,1.314,0,0,0,1.313,1.312h15.75a1.314,1.314,0,0,0,1.313-1.312V7A5.694,5.694,0,0,0,14,1.313H2.625M2.625,0H14a7,7,0,0,1,7,7V23.625a2.625,2.625,0,0,1-2.625,2.625H2.625A2.625,2.625,0,0,1,0,23.625v-21A2.625,2.625,0,0,1,2.625,0Z" transform="translate(3168 -8628.913)" fill="#707070"/>
    <path id="Rectangle_24848_-_Outline" data-name="Rectangle 24848 - Outline" d="M1.332,1.487v3.84a.444.444,0,0,0,.444.444h3.84A5.79,5.79,0,0,0,1.332,1.487M0,0A7.1,7.1,0,0,1,7.1,7.1H1.775A1.775,1.775,0,0,1,0,5.326Z" transform="translate(3181.742 -8628.913)" fill="#707070"/>
    <rect id="Rectangle_24849" data-name="Rectangle 24849" width="21" height="7" rx="1" transform="translate(3168 -8614)" fill="#d53312"/>
    <g id="Rectangle_24868" data-name="Rectangle 24868" transform="translate(3173 -8615)" fill="#d53317" stroke="#fff" stroke-width="1.5">
      <rect width="11" height="9" rx="2" stroke="none"/>
      <rect x="0.75" y="0.75" width="9.5" height="7.5" rx="1.25" fill="none"/>
    </g>
    <path id="Path_39751" data-name="Path 39751" d="M3175.46-8620.953h9.667" transform="translate(-1.96 2)" fill="none" stroke="#acacac" stroke-linecap="round" stroke-width="1.2"/>
    <path id="Path_39753" data-name="Path 39753" d="M3175.46-8620.953h9.667" transform="translate(-1.96 5)" fill="none" stroke="#acacac" stroke-linecap="round" stroke-width="1.2"/>
    <path id="Path_39752" data-name="Path 39752" d="M3175.46-8620.953h5.284" transform="translate(-1.96 -1)" fill="none" stroke="#acacac" stroke-linecap="round" stroke-width="1.2"/>
  </g>
</svg>
