<!-- Generated by IcoMoon.io -->
<svg version="1.1" xmlns="http://www.w3.org/2000/svg" width="24" height="24" viewBox="0 0 24 24">
<title>folder</title>
<path d="M21.518 8.341c-0.265-1.092-1.234-1.891-2.39-1.892h-0.114c-1.044 0-2.102 0-3.128 0h-1.617c-0.696-0.001-1.324-0.289-1.773-0.751l-0.001-0.001-0.329-0.33c-0.181-0.184-0.369-0.373-0.557-0.556-0.452-0.478-1.085-0.781-1.79-0.797l-0.003-0c-1.57-0.007-3.14-0.008-4.661 0-0.582 0.011-1.109 0.236-1.508 0.599l0.002-0.002c-0.545 0.494-0.886 1.204-0.886 1.995 0 0.192 0.020 0.379 0.058 0.559l-0.003-0.018c0.024 0.080 0.038 0.172 0.038 0.268 0 0 0 0.001 0 0.001v-0c-0.032 0.122-0.080 0.229-0.14 0.327l0.003-0.005c-0.2 0.343-0.318 0.754-0.318 1.194 0 0.083 0.004 0.165 0.013 0.246l-0.001-0.010c0.049 0.529 0.1 1.056 0.151 1.582 0.071 0.736 0.144 1.494 0.213 2.245q0.095 1.061 0.185 2.12c0.070 0.821 0.144 1.67 0.22 2.505v0.039c0.11 1.308 1.196 2.328 2.522 2.331h0c0.069 0 0.139 0 0.208-0.008h6.011v-0.007h2.079c1.362 0 2.771 0 4.156 0 0.054 0 0.108 0.005 0.161 0.005 0 0 0.001 0 0.001 0 1.040 0 1.93-0.64 2.299-1.548l0.006-0.017c0.164-0.49 0.259-1.054 0.259-1.641 0-0.013-0-0.026-0-0.038l0 0.002c0.070-0.697 0.132-1.406 0.193-2.091q0.049-0.547 0.1-1.095c0.128-1.374 0.264-2.857 0.416-4.533 0.002-0.035 0.003-0.076 0.003-0.117 0-0.2-0.029-0.394-0.084-0.577l0.004 0.014zM18.98 7.73c0.030-0.003 0.065-0.004 0.101-0.004 0.105 0 0.208 0.013 0.306 0.037l-0.009-0.002c0.553 0.138 0.956 0.631 0.956 1.217 0 0.105-0.013 0.207-0.037 0.304l0.002-0.009c-0.083 0.708-0.143 1.431-0.199 2.13-0.026 0.312-0.052 0.621-0.080 0.933q-0.069 0.755-0.135 1.51c-0.107 1.207-0.217 2.456-0.336 3.685-0.068 0.657-0.619 1.165-1.288 1.165-0 0-0 0-0.001 0h-12.53c-0.007 0-0.016 0.001-0.024 0.001s-0.017-0-0.025-0.001l0.001 0c-0.682-0.001-1.234-0.554-1.234-1.236 0-0.001 0-0.001 0-0.002v0c-0.143-1.598-0.299-3.223-0.438-4.796l-0.134-1.453c-0.018-0.206-0.038-0.412-0.057-0.617-0.048-0.509-0.1-1.034-0.136-1.552-0.002-0.027-0.004-0.059-0.004-0.092s0.001-0.064 0.004-0.096l-0 0.004c0.049-0.637 0.577-1.136 1.222-1.138h0c0.013-0.001 0.029-0.001 0.045-0.001s0.031 0 0.047 0.001l-0.002-0h7.039v-0.025 0.031zM9.886 6.443c-0.856 0-1.739-0.007-2.606 0.008-0.296-0.019-0.643-0.031-0.991-0.031-0.747 0-1.482 0.051-2.201 0.15l0.084-0.009c-0.046 0.010-0.076 0.007-0.092-0.008s-0.018-0.077-0.013-0.125c0-0.021 0-0.041 0-0.056 0.046-0.577 0.504-1.035 1.077-1.080l0.004-0c0.524-0.006 1.052-0.007 1.577-0.007s1.055 0 1.571 0 1.050 0 1.574 0v0c0.001 0 0.002 0 0.004 0 0.196 0 0.377 0.064 0.523 0.173l-0.002-0.002c0.375 0.316 0.715 0.638 1.035 0.978l0.006 0.006c-0.515 0.005-1.045 0.007-1.551 0.004zM7.28 6.452v0.024z"></path>
</svg>
