<!-- Generated by IcoMoon.io -->
<svg version="1.1" xmlns="http://www.w3.org/2000/svg" width="24" height="24" viewBox="0 0 24 24">
<title>arrows-rotate</title>
<path d="M21.125 6.125c-0.062-0.018-0.132-0.028-0.206-0.028-0.355 0-0.654 0.238-0.748 0.562l-0.001 0.006-0.549 1.964c-1.315-2.952-4.218-4.976-7.595-4.988h-0.001c-0.613 0-1.21 0.066-1.785 0.191l0.055-0.010c-0.336 0.072-0.611 0.148-0.881 0.237l0.059-0.017c-0.324 0.105-0.584 0.206-0.838 0.321l0.051-0.021c-0.305 0.134-0.55 0.259-0.788 0.395l0.041-0.021c-0.277 0.157-0.506 0.305-0.727 0.463l0.025-0.017c-0.468 0.332-0.878 0.687-1.25 1.079l-0.003 0.003q-0.285 0.301-0.54 0.627c-0.090 0.103-0.172 0.218-0.243 0.339l-0.006 0.011c-0.046 0.088-0.072 0.192-0.072 0.303 0 0.055 0.007 0.108 0.019 0.159l-0.001-0.005c0.005 0.022 0.010 0.041 0.016 0.059l-0.001-0.004c0.046 0.144 0.133 0.265 0.248 0.351l0.002 0.001c0.117 0.087 0.264 0.139 0.423 0.139 0.204 0 0.388-0.086 0.517-0.224l0-0c0.046-0.052 0.082-0.113 0.124-0.169q0.124-0.164 0.257-0.323c0.357-0.421 0.751-0.791 1.183-1.114l0.019-0.013c0.198-0.148 0.424-0.297 0.659-0.433l0.034-0.018c0.203-0.119 0.448-0.242 0.701-0.351l0.045-0.017c0.212-0.093 0.475-0.188 0.746-0.265l0.047-0.012c0.508-0.149 1.092-0.241 1.697-0.254l0.007-0h0.155c2.904 0.009 5.387 1.803 6.409 4.342l0.017 0.047-2.061-0.575c-0.060-0.016-0.128-0.026-0.198-0.026-0.429 0-0.776 0.348-0.776 0.776 0 0.35 0.232 0.647 0.551 0.743l0.006 0.001 3.691 1.029c0.062 0.018 0.134 0.028 0.208 0.028 0.353 0 0.651-0.236 0.745-0.559l0.001-0.005c-0.001-0.004-0.001-0.009-0.001-0.014s0.001-0.010 0.001-0.015l-0 0 0.005-0.018 0.018-0.030 1.022-3.675c0.019-0.063 0.029-0.136 0.029-0.212 0-0.351-0.233-0.648-0.552-0.745l-0.006-0.001z"></path>
<path d="M18.871 16.266c-0.046-0.145-0.133-0.266-0.248-0.352l-0.002-0.001c-0.117-0.088-0.265-0.141-0.425-0.141-0.125 0-0.242 0.032-0.343 0.088l0.004-0.002c-0.070 0.038-0.13 0.084-0.18 0.14l-0 0.001c-0.046 0.051-0.082 0.113-0.124 0.168-0.082 0.104-0.168 0.218-0.257 0.323-0.182 0.216-0.368 0.411-0.564 0.595l-0.004 0.003c-0.192 0.182-0.399 0.355-0.616 0.516l-0.018 0.013c-0.416 0.312-0.889 0.587-1.394 0.803l-0.045 0.017c-0.21 0.092-0.473 0.186-0.743 0.264l-0.050 0.012c-0.507 0.148-1.092 0.239-1.695 0.253l-0.008 0h-0.156c-2.91-0.009-5.398-1.811-6.416-4.358l-0.016-0.047 2.049 0.571c0.060 0.016 0.128 0.026 0.198 0.026 0.429 0 0.776-0.348 0.776-0.776 0-0.35-0.232-0.647-0.551-0.743l-0.006-0.001-3.691-1.029c-0.063-0.018-0.134-0.028-0.208-0.028-0.353 0-0.651 0.236-0.745 0.558l-0.001 0.005c0.001 0.004 0.002 0.009 0.002 0.014s-0.001 0.010-0.002 0.015l0-0-0.005 0.019-0.018 0.030-1.022 3.675c-0.018 0.063-0.029 0.135-0.029 0.209 0 0.428 0.347 0.776 0.776 0.776 0.354 0 0.653-0.237 0.746-0.561l0.001-0.005 0.557-1.996c1.309 2.971 4.217 5.014 7.605 5.040l0.003 0c0.003 0 0.006 0 0.010 0 0.305 0 0.607-0.017 0.903-0.049l-0.037 0.003c0.333-0.035 0.624-0.083 0.909-0.145l-0.056 0.010c0.335-0.071 0.611-0.147 0.88-0.236l-0.058 0.017c0.326-0.106 0.587-0.207 0.841-0.321l-0.053 0.021q0.382-0.169 0.746-0.375t0.702-0.445c0.226-0.16 0.444-0.33 0.653-0.511s0.408-0.372 0.599-0.573 0.37-0.41 0.54-0.627c0.090-0.103 0.172-0.218 0.243-0.339l0.006-0.011c0.046-0.089 0.073-0.193 0.073-0.304 0-0.054-0.006-0.106-0.018-0.156l0.001 0.005c-0.006-0.023-0.012-0.041-0.019-0.060l0.001 0.003z"></path>
</svg>
