<svg xmlns="http://www.w3.org/2000/svg" width="27.051" height="26.026" viewBox="0 0 27.051 26.026">
  <g id="Group_41530" data-name="Group 41530" transform="translate(0)">
    <path id="Path_41369" data-name="Path 41369" d="M3.023,1h8.062c4.452,0,8.062,2.6,8.062,7.054V23.17c0,1.67-1.354,2.015-3.023,2.015H3.023C1.354,25.186,0,24.84,0,23.17V3.015C0,1.346,1.354,1,3.023,1Z" transform="translate(7.054 -0.08)" fill="#fff"/>
    <path id="Rectangle_24847_-_Outline" data-name="Rectangle 24847 - Outline" d="M2.6,1.3A1.3,1.3,0,0,0,1.3,2.6V23.424a1.3,1.3,0,0,0,1.3,1.3H18.218a1.3,1.3,0,0,0,1.3-1.3V6.94A5.645,5.645,0,0,0,13.881,1.3H2.6M2.6,0H13.881a6.94,6.94,0,0,1,6.94,6.94V23.424a2.6,2.6,0,0,1-2.6,2.6H2.6a2.6,2.6,0,0,1-2.6-2.6V2.6A2.6,2.6,0,0,1,2.6,0Z" transform="translate(6.23 0)" fill="#707070"/>
    <path id="Rectangle_24848_-_Outline" data-name="Rectangle 24848 - Outline" d="M1.342,1.5V5.367a.448.448,0,0,0,.447.447H5.658A5.835,5.835,0,0,0,1.342,1.5M0,0A7.157,7.157,0,0,1,7.157,7.157H1.789A1.789,1.789,0,0,1,0,5.367Z" transform="translate(19.895 0)" fill="#707070"/>
    <rect id="Rectangle_26649" data-name="Rectangle 26649" width="15.116" height="15.116" rx="2" transform="translate(0 5.959)" fill="#d04228"/>
    <path id="Path_39742" data-name="Path 39742" d="M3391.081-8621.969h-6.941a.649.649,0,0,1-.651-.649.65.65,0,0,1,.651-.65h6.941a.649.649,0,0,1,.65.65A.649.649,0,0,1,3391.081-8621.969Z" transform="translate(-3367.291 8633.445)" fill="#fc8f7b"/>
    <path id="Path_39743" data-name="Path 39743" d="M3391.081-8621.969h-6.941a.649.649,0,0,1-.651-.649.65.65,0,0,1,.651-.65h6.941a.649.649,0,0,1,.65.65A.649.649,0,0,1,3391.081-8621.969Z" transform="translate(-3367.291 8636.048)" fill="#d04228"/>
    <path id="Path_39744" data-name="Path 39744" d="M3391.081-8621.969h-6.941a.649.649,0,0,1-.651-.649.65.65,0,0,1,.651-.65h6.941a.649.649,0,0,1,.65.65A.649.649,0,0,1,3391.081-8621.969Z" transform="translate(-3367.291 8638.648)" fill="#d04228"/>
    <g id="Group_41056" data-name="Group 41056" transform="translate(5.293 9.443)">
      <path id="Path_41370" data-name="Path 41370" d="M-1043.816,835.121a3.044,3.044,0,0,1-.182,1.066,2.135,2.135,0,0,1-.569.845,2.772,2.772,0,0,1-.972.558,4.266,4.266,0,0,1-1.4.2h-.906v2.684h-1.646v-7.952h2.562a3.577,3.577,0,0,1,2.33.652A2.382,2.382,0,0,1-1043.816,835.121Zm-4.031-1.237v2.584h.917a2.075,2.075,0,0,0,.7-.1,1.107,1.107,0,0,0,.442-.276,1.032,1.032,0,0,0,.237-.42,1.9,1.9,0,0,0,.072-.541,1.7,1.7,0,0,0-.072-.514.955.955,0,0,0-.237-.392,1.076,1.076,0,0,0-.442-.254,2.324,2.324,0,0,0-.7-.088Z" transform="translate(1049.492 -832.526)" fill="#fff"/>
    </g>
  </g>
</svg>
